---
config:
    class:
        hideEmptyMembersBox: true
---

classDiagram
    class `components/base-object-properties-1.0.1`:::schemaComponent {
        name: string
        uuid: components/base-object-properties-1.0.1-uuid
        description: string
        extensions: object
        tags: object
    }
    class `components/base-spatial-data-properties-1.0.1`:::schemaComponent {
        name: string*
        uuid: components/base-object-properties-1.0.1-uuid*
        description: string*
        extensions: object*
        tags: object*
        bounding_box: components/bounding-box-1.0.1
        coordinate_reference_system: components/crs-1.0.1
    }
    `components/base-object-properties-1.0.1` <|-- `components/base-spatial-data-properties-1.0.1`
    class `components/ellipsoid-1.0.1`:::schemaComponent {
        ellipsoid_ranges: components/ellipsoid-1.0.1-ellipsoid_ranges
        rotation: components/rotation-1.0.1
    }
    class `objects/global-ellipsoid-1.0.1`:::schemaObject {
        name: string*
        uuid: components/base-object-properties-1.0.1-uuid*
        description: string*
        extensions: object*
        tags: object*
        bounding_box: components/bounding-box-1.0.1*
        coordinate_reference_system: components/crs-1.0.1*
        ellipsoid_ranges: components/ellipsoid-1.0.1-ellipsoid_ranges*
        rotation: components/rotation-1.0.1*
        domain: string
        attribute: string
    }
    `components/base-object-properties-1.0.1` <|-- `objects/global-ellipsoid-1.0.1`
    `components/base-spatial-data-properties-1.0.1` <|-- `objects/global-ellipsoid-1.0.1`
    `components/ellipsoid-1.0.1` <|-- `objects/global-ellipsoid-1.0.1`
    `components/base-object-properties-1.0.1` *-- `components/base-object-properties-1.0.1-uuid` : ref uuid*
    `components/base-spatial-data-properties-1.0.1` *-- `components/bounding-box-1.0.1` : ref bounding_box*
    `components/base-spatial-data-properties-1.0.1` *-- `components/crs-1.0.1` : ref coordinate_reference_system*
    `components/ellipsoid-1.0.1` *-- `components/ellipsoid-1.0.1-ellipsoid_ranges` : ref ellipsoid_ranges*
    `components/ellipsoid-1.0.1` *-- `components/rotation-1.0.1` : ref rotation*
    class `components/ellipsoid-1.0.1-ellipsoid_ranges`:::schemaImplicit {
        major: number
        semi_major: number
        minor: number
    }
    class `components/base-object-properties-1.0.1-uuid`:::schemaImplicit {
    }
    class `components/bounding-box-1.0.1`:::schemaComponent {
        min_x: number
        max_x: number
        min_y: number
        max_y: number
        min_z: number
        max_z: number
    }
    class `components/rotation-1.0.1`:::schemaComponent {
        dip_azimuth: number
        dip: number
        pitch: number
    }
    class `components/crs-1.0.1`:::schemaComponent {
    }
